<?xml version="1.0" encoding="UTF-8"?>
<svg version="1.1" xmlns="http://www.w3.org/2000/svg" width="1016" height="1016">
<path d="M0 0 C3.82380852 0.36504139 6.26966061 1.51048566 9.6484375 3.3125 C10.70804688 3.869375 11.76765625 4.42625 12.859375 5 C13.65601563 5.433125 14.45265625 5.86625 15.2734375 6.3125 C15.2734375 6.9725 15.2734375 7.6325 15.2734375 8.3125 C16.0984375 8.539375 16.9234375 8.76625 17.7734375 9 C21.23832761 10.29933379 23.91473767 11.88377535 26.99609375 13.8828125 C34.33716255 18.49144232 42.16304602 22.29773578 49.9375 26.109375 C57.44317076 29.80237233 64.75847711 33.62964812 71.91796875 37.96484375 C74.30182098 39.43120634 74.30182098 39.43120634 77.2734375 40.3125 C77.2734375 40.9725 77.2734375 41.6325 77.2734375 42.3125 C77.95148438 42.39113281 78.62953125 42.46976563 79.328125 42.55078125 C83.1209204 43.53167661 86.11951982 45.43403911 89.3984375 47.5 C90.74641513 48.3284208 92.09537912 49.15523872 93.4453125 49.98046875 C94.10208984 50.38313965 94.75886719 50.78581055 95.43554688 51.20068359 C100.96812645 54.54757087 106.72527081 57.50162059 112.44921875 60.50390625 C113.19316895 60.89513672 113.93711914 61.28636719 114.70361328 61.68945312 C116.16254402 62.45568367 117.62305442 63.21891731 119.08544922 63.97851562 C123.35582718 66.21772534 127.45003908 68.63668559 131.52026367 71.22094727 C133.48932533 72.44691505 135.49170052 73.5037125 137.5859375 74.5 C149.0008534 80.08376691 160.20957022 86.12444204 171.33984375 92.25390625 C172.63793847 92.96458033 173.94977363 93.65066806 175.2734375 94.3125 C175.2734375 94.9725 175.2734375 95.6325 175.2734375 96.3125 C175.94761719 96.395 176.62179687 96.4775 177.31640625 96.5625 C181.11763593 97.52661638 184.23179284 99.34880822 187.5859375 101.3125 C189.01427397 102.13159578 190.44266084 102.95060367 191.87109375 103.76953125 C192.5995752 104.19057129 193.32805664 104.61161133 194.07861328 105.04541016 C197.54953658 107.04920236 201.03399049 109.02867534 204.5234375 111 C205.18706299 111.37543945 205.85068848 111.75087891 206.53442383 112.13769531 C211.50746701 114.93091764 216.57432146 117.48789857 221.69921875 119.9921875 C223.89832542 121.12010564 225.9083789 122.3191276 227.9609375 123.6875 C232.61277109 126.71119183 237.65730758 128.89498535 242.68408203 131.21240234 C249.37047498 134.31097468 255.83463615 137.72916707 262.2734375 141.3125 C262.2734375 141.9725 262.2734375 142.6325 262.2734375 143.3125 C262.95792969 143.40402344 263.64242188 143.49554688 264.34765625 143.58984375 C267.97400113 144.48553641 270.82391058 146.06276282 274.0859375 147.875 C274.68341797 148.20435547 275.28089844 148.53371094 275.89648438 148.87304688 C277.35877748 149.68023267 278.8165774 150.49554917 280.2734375 151.3125 C280.2734375 151.9725 280.2734375 152.6325 280.2734375 153.3125 C280.99635986 153.4249707 281.71928223 153.53744141 282.46411133 153.65332031 C285.42465682 154.34798207 287.57478617 155.37708066 290.22265625 156.859375 C291.15400391 157.375 292.08535156 157.890625 293.04492188 158.421875 C294.00720703 158.96328125 294.96949219 159.5046875 295.9609375 160.0625 C302.19429957 163.53920776 308.43290498 166.94593684 314.83325195 170.10644531 C318.92164177 172.12712022 322.97514587 174.2128998 327.0234375 176.3125 C327.83425781 176.725 328.64507813 177.1375 329.48046875 177.5625 C340.85860234 183.48282967 340.85860234 183.48282967 343.2734375 188.3125 C343.37311322 190.7779975 343.41215349 193.2144087 343.40501404 195.68017578 C343.4062841 196.44189465 343.40755416 197.20361351 343.40886271 197.98841476 C343.41065531 200.53658882 343.40398189 203.08465052 343.39624023 205.6328125 C343.39495334 206.52022251 343.39366644 207.40763252 343.39234054 208.32193375 C343.36171836 226.95146437 342.96612752 245.56868375 342.52108103 264.19210529 C341.60859467 302.41870406 341.05672039 340.63795136 340.89453125 378.875 C340.887475 380.51610371 340.887475 380.51610371 340.8802762 382.19036102 C340.82370312 395.54621468 340.77924746 408.90209456 340.74054396 422.25801086 C340.58565538 475.68855401 340.43006783 529.12048846 339.92613411 582.54907227 C339.88877832 586.52805409 339.85577277 590.50703328 339.82668877 594.48608398 C339.79273157 599.08555835 339.74929943 603.6848424 339.69814563 608.2841568 C339.68100372 609.95969858 339.66713031 611.63527748 339.65677381 613.31087494 C339.64205522 615.59059103 339.61526933 617.86985419 339.58534241 620.14941406 C339.57333833 621.42044983 339.56133425 622.6914856 339.54896641 624.0010376 C339.16854603 628.57314512 338.37530125 631.29886043 334.98046875 634.421875 C324.40793016 641.8058702 312.63547416 647.23370706 301.078125 652.87109375 C295.08080189 655.82177672 289.25823714 658.99960255 283.47949219 662.35375977 C279.84262545 664.45260576 276.16987978 666.4051617 272.3984375 668.25 C267.66833861 670.56486272 263.0933308 673.07660394 258.5234375 675.6875 C253.28668992 678.67655374 248.00685565 681.48546306 242.5859375 684.125 C233.31850841 688.6524926 224.44965859 693.86165689 215.52294922 699.01904297 C211.15037617 701.53324875 206.72461418 703.94102233 202.2734375 706.3125 C201.3151001 706.82441895 201.3151001 706.82441895 200.33740234 707.34667969 C195.32629784 710.02154912 190.30403295 712.67448948 185.2734375 715.3125 C183.68595703 716.1478125 183.68595703 716.1478125 182.06640625 717 C181.18597656 717.45375 180.30554688 717.9075 179.3984375 718.375 C178.65851563 718.75785156 177.91859375 719.14070312 177.15625 719.53515625 C175.2734375 720.3125 175.2734375 720.3125 172.2734375 720.3125 C172.2734375 720.9725 172.2734375 721.6325 172.2734375 722.3125 C171.46519531 722.71082031 170.65695312 723.10914063 169.82421875 723.51953125 C168.75558594 724.04933594 167.68695312 724.57914063 166.5859375 725.125 C165.00232422 725.90810547 165.00232422 725.90810547 163.38671875 726.70703125 C161.54188622 727.65838152 159.71491863 728.64849814 157.9362793 729.71850586 C155.18066255 731.36803568 152.38426687 732.90290619 149.5546875 734.421875 C148.45640625 735.01226563 147.358125 735.60265625 146.2265625 736.2109375 C145.08703125 736.82195313 143.9475 737.43296875 142.7734375 738.0625 C141.66484375 738.65804687 140.55625 739.25359375 139.4140625 739.8671875 C134.87441304 742.30592942 130.3342311 744.74367296 125.79272461 747.17895508 C120.1078411 750.23194051 114.44513469 753.31020682 108.8359375 756.5 C95.16279114 764.22800369 81.43316486 771.85514905 67.3359375 778.78515625 C61.50378455 781.69379375 55.69923522 784.69530152 50.2734375 788.3125 C49.2834375 788.3125 48.2934375 788.3125 47.2734375 788.3125 C47.2734375 788.9725 47.2734375 789.6325 47.2734375 790.3125 C45.67311613 791.15319415 44.06802579 791.98481505 42.4609375 792.8125 C41.56761719 793.2765625 40.67429687 793.740625 39.75390625 794.21875 C37.2734375 795.3125 37.2734375 795.3125 34.2734375 795.3125 C34.2734375 795.9725 34.2734375 796.6325 34.2734375 797.3125 C27.41965833 801.10133073 20.51442247 804.78752261 13.5859375 808.4375 C12.79082764 808.85692871 11.99571777 809.27635742 11.17651367 809.70849609 C9.62645871 810.52350164 8.07368974 811.33336921 6.51806641 812.13769531 C5.02932177 812.91688165 3.55197615 813.71827165 2.08740234 814.54199219 C1.39984863 814.91743164 0.71229492 815.29287109 0.00390625 815.6796875 C-0.89678589 816.18798096 -0.89678589 816.18798096 -1.81567383 816.70654297 C-4.36378231 817.51456715 -6.15577365 816.893351 -8.7265625 816.3125 C-8.74963471 774.12194807 -8.76716383 731.93139688 -8.77762783 689.74083985 C-8.77887799 684.71866536 -8.78017237 679.69649088 -8.78149414 674.67431641 C-8.78175645 673.67481987 -8.78201876 672.67532334 -8.78228902 671.64553903 C-8.78659743 655.62727266 -8.79445727 639.60901001 -8.8037153 623.59074582 C-8.81318818 607.05834592 -8.81864635 590.52594792 -8.82065099 573.99354541 C-8.82187999 564.74812594 -8.8247693 555.50271419 -8.83229256 546.25729752 C-8.8617257 508.95505401 -8.75393874 471.667368 -8.11599159 434.37013626 C-8.07024291 431.69110652 -8.02465699 429.01207411 -7.97926331 426.33303833 C-7.9680526 425.67270273 -7.95684189 425.01236713 -7.94529146 424.33202136 C-7.68195168 408.68547045 -7.54442421 393.03838481 -7.42944336 377.39013672 C-7.42434498 376.70133942 -7.41924659 376.01254212 -7.41399372 375.30287218 C-7.35100384 366.76422484 -7.29239412 358.22555081 -7.23593795 349.68685798 C-7.20068984 344.3600706 -7.16432965 339.0332917 -7.12732124 333.70651627 C-7.12190601 332.92675422 -7.11649078 332.14699217 -7.11091145 331.34360097 C-7.09988023 329.75546326 -7.08884776 328.16732557 -7.07781405 326.57918788 C-6.97594068 311.89651892 -6.87747346 297.21382873 -6.78021956 282.53112854 C-6.69852166 270.21083465 -6.61350283 257.89056734 -6.52612305 245.5703125 C-6.3893711 226.27346612 -6.25667211 206.97659554 -6.12890625 187.6796875 C-6.12371143 186.89773305 -6.11851661 186.11577861 -6.11316437 185.31012857 C-5.8869669 151.23572171 -5.69073963 117.16218225 -5.70361328 83.08691406 C-5.704044 81.84063964 -5.70447473 80.59436522 -5.7049185 79.31032491 C-5.7101074 67.74512254 -5.72359687 56.17998234 -5.75769472 44.61482716 C-5.76906456 40.56967414 -5.77695615 36.52451822 -5.78439593 32.47935629 C-5.79101135 29.77395363 -5.80329925 27.06861931 -5.81594276 24.36323929 C-5.81932387 22.74306546 -5.82243078 21.12289103 -5.82521057 19.50271606 C-5.83027601 18.79766682 -5.83534144 18.09261757 -5.84056038 17.36620319 C-5.84013372 0.6693563 -5.84013372 0.6693563 0 0 Z M101.2734375 179.3125 C99.69741382 180.88852368 100.11362987 182.48233646 100.0766077 184.67341042 C100.05837062 185.6231959 100.04013355 186.57298138 100.02134383 187.55154824 C100.00632933 188.60974637 99.99131482 189.66794449 99.97584534 190.75820923 C99.95650606 191.87599251 99.93716677 192.99377578 99.91724145 194.14543128 C99.85381213 197.94665734 99.79867074 201.74794931 99.74438477 205.54931641 C99.72384539 206.90058292 99.70314469 208.25184699 99.68228829 209.60310864 C99.12965383 245.64462386 98.96345957 281.68975272 98.78281209 317.73465057 C98.73272917 327.70384462 98.67875701 337.67301672 98.62468905 347.64218982 C98.5282928 365.43576272 98.43492554 383.2293501 98.34350586 401.02294922 C98.25524515 418.20069406 98.16519205 435.37842815 98.07299805 452.55615234 C98.06728678 453.62036232 98.06157551 454.68457229 98.05569118 455.78103106 C98.03271315 460.06177866 98.00972947 464.34252623 97.98673671 468.62327375 C97.88731506 487.14107785 97.78927471 505.65888931 97.69148293 524.17670208 C97.67579656 527.14554054 97.66008282 530.11437886 97.64436412 533.08321714 C97.58475037 544.35013774 97.52585198 555.61706173 97.46794701 566.88399124 C97.45047273 570.28010449 97.43273173 573.67621617 97.41473007 577.07232666 C97.36815218 585.88496718 97.32584387 594.69760229 97.2905128 603.51029539 C97.27417738 607.14774979 97.25154665 610.78512087 97.22805977 614.42253494 C97.2185772 616.51587043 97.20935487 618.60920712 97.20045471 620.70254517 C97.19270553 621.62312662 97.18495634 622.54370808 97.17697233 623.49218595 C97.16559264 627.569865 97.23600885 631.33527847 98.2734375 635.3125 C99.9234375 634.9825 101.5734375 634.6525 103.2734375 634.3125 C103.2734375 633.6525 103.2734375 632.9925 103.2734375 632.3125 C104.4490625 632.250625 104.4490625 632.250625 105.6484375 632.1875 C110.019816 631.13233967 113.08279477 629.12499701 116.859375 626.74609375 C119.56741259 625.13792256 122.22973366 624.11347469 125.2734375 623.3125 C125.2734375 622.6525 125.2734375 621.9925 125.2734375 621.3125 C126.0984375 621.065 126.9234375 620.8175 127.7734375 620.5625 C134.94566319 618.00099082 141.52925704 614.10938832 148.22485352 610.51489258 C153.4754382 607.70862319 158.78553714 605.03793613 164.12182617 602.39916992 C170.06918379 599.44546331 175.93298441 596.34300712 181.77880859 593.19360352 C184.58593852 591.68952065 187.24562315 590.32177145 190.2734375 589.3125 C190.2734375 588.6525 190.2734375 587.9925 190.2734375 587.3125 C191.01062012 587.19028076 191.74780273 587.06806152 192.50732422 586.94213867 C195.17874812 586.33405374 197.12934897 585.52716689 199.53125 584.23828125 C200.31709473 583.82070557 201.10293945 583.40312988 201.91259766 582.97290039 C202.7329248 582.52809326 203.55325195 582.08328613 204.3984375 581.625 C205.66179932 580.94715454 205.66179932 580.94715454 206.95068359 580.25561523 C208.62600845 579.35583221 210.30003375 578.4536247 211.97265625 577.54882812 C213.94906516 576.48680194 215.93399045 575.44699957 217.9296875 574.421875 C218.909375 573.91140625 219.8890625 573.4009375 220.8984375 572.875 C221.73632812 572.44316406 222.57421875 572.01132812 223.4375 571.56640625 C225.59148548 570.3667812 225.59148548 570.3667812 226.2734375 567.3125 C226.37400771 565.7969679 226.41960445 564.27746925 226.43165588 562.75865173 C226.44633958 561.34671382 226.44633958 561.34671382 226.46131992 559.90625191 C226.46707507 558.8684754 226.47283022 557.83069889 226.47875977 556.76147461 C226.48865653 555.65831846 226.4985533 554.55516232 226.50874996 553.41857719 C226.54076705 549.68402173 226.56543544 545.94945622 226.58984375 542.21484375 C226.60530902 540.20838738 226.62078003 538.20193104 226.63665926 536.1954779 C226.69445759 528.87626711 226.74452678 521.55702011 226.79108965 514.23772997 C226.82562495 508.80973873 226.86236702 503.38176615 226.90011597 497.95379639 C227.47640615 414.40785484 227.37136038 330.8598749 227.2734375 247.3125 C225.00698692 245.97119239 222.73583653 244.63933766 220.4609375 243.3125 C219.81833984 242.9309375 219.17574219 242.549375 218.51367188 242.15625 C214.65278226 239.88065731 214.65278226 239.88065731 210.2734375 239.3125 C210.2734375 238.6525 210.2734375 237.9925 210.2734375 237.3125 C209.29246094 236.8278125 208.31148437 236.343125 207.30078125 235.84375 C200.47532577 232.45876107 193.67516336 229.03886677 186.9609375 225.4375 C186.36410156 225.11765137 185.76726562 224.79780273 185.15234375 224.46826172 C183.88852324 223.79031607 182.62485631 223.11208406 181.36132812 222.43359375 C177.3150352 220.26093506 173.26580499 218.09412054 169.2109375 215.9375 C168.41324951 215.50840332 167.61556152 215.07930664 166.79370117 214.63720703 C162.69288679 212.46151286 158.75361535 210.61712779 154.2734375 209.3125 C154.2734375 208.6525 154.2734375 207.9925 154.2734375 207.3125 C152.65093809 206.47430842 151.02535253 205.6420884 149.3984375 204.8125 C148.04105469 204.11640625 148.04105469 204.11640625 146.65625 203.40625 C144.40746891 202.17344411 144.40746891 202.17344411 142.2734375 202.3125 C142.2734375 201.6525 142.2734375 200.9925 142.2734375 200.3125 C141.27957031 199.89613281 140.28570313 199.47976563 139.26171875 199.05078125 C135.25914144 197.33366653 131.35532619 195.44837403 127.4609375 193.5 C126.76315186 193.15251709 126.06536621 192.80503418 125.34643555 192.44702148 C120.52946848 190.0198848 115.9087593 187.38916625 111.38671875 184.44140625 C109.02439284 183.17946136 106.90947519 182.71413797 104.2734375 182.3125 C104.2734375 181.6525 104.2734375 180.9925 104.2734375 180.3125 C103.2834375 179.9825 102.2934375 179.6525 101.2734375 179.3125 Z " fill="#000000" transform="translate(545.7265625,98.6875)"/>
<path d="M0 0 C1.1575458 5.29801406 1.35313139 10.470016 1.55200195 15.87670898 C1.59404157 17.00831923 1.63608118 18.13992949 1.67939472 19.30583096 C2.21034569 35.28690527 2.1648892 51.27587113 2.16725707 67.26394582 C2.16797688 70.00361212 2.17012796 72.74327367 2.17275429 75.48293877 C2.18192985 85.07009058 2.1860975 94.6572287 2.18530273 104.24438477 C2.18469822 113.14250843 2.19534266 122.04057223 2.2110464 130.93868071 C2.22413144 138.63015527 2.2294865 146.32161019 2.22884732 154.0130958 C2.22859341 158.58548933 2.23138829 163.15782896 2.24202538 167.73021126 C2.25172725 172.01424682 2.25177132 176.29817692 2.24450874 180.58221626 C2.24346679 182.14747777 2.24580257 183.71274596 2.2518692 185.27799606 C2.32226573 204.7038809 2.32226573 204.7038809 -1.9375 210.75 C-8.442742 215.52936147 -16.23393439 218.16634581 -23.7109375 221.0859375 C-25.79609841 221.91857855 -27.83209135 222.81982457 -29.875 223.75 C-33 225 -33 225 -37 225 C-37 225.66 -37 226.32 -37 227 C-37.6798999 227.25168945 -38.3597998 227.50337891 -39.06030273 227.76269531 C-42.18715119 228.92214528 -45.31232705 230.08604183 -48.4375 231.25 C-49.50677734 231.64574219 -50.57605469 232.04148437 -51.67773438 232.44921875 C-57.19276511 234.50681431 -62.62004651 236.65522124 -67.9777832 239.09326172 C-71.07113751 240.48028549 -74.21817295 241.70147553 -77.375 242.9375 C-82.01118648 244.76033902 -86.55496433 246.68479558 -91.0625 248.8125 C-94.70597597 250.498692 -97.93214492 251.79139205 -102 252 C-102.66 251.67 -103.32 251.34 -104 251 C-104 225.92 -104 200.84 -104 175 C-111.16956141 178.5847807 -118.30152629 182.17743827 -125.375 185.9375 C-131.23435784 189.03033011 -137.0954439 192.11914445 -143 195.125 C-144.093125 195.68445313 -145.18625 196.24390625 -146.3125 196.8203125 C-149 198 -149 198 -152 198 C-152 198.66 -152 199.32 -152 200 C-152.58378418 200.27674561 -153.16756836 200.55349121 -153.76904297 200.83862305 C-156.4715395 202.12050812 -159.17327155 203.40399693 -161.875 204.6875 C-162.7928125 205.12255859 -163.710625 205.55761719 -164.65625 206.00585938 C-175.08088872 210.96123341 -185.32973349 216.17720672 -195.47070312 221.68945312 C-196.27314453 222.11806641 -197.07558594 222.54667969 -197.90234375 222.98828125 C-198.61898193 223.37540283 -199.33562012 223.76252441 -200.07397461 224.16137695 C-202 225 -202 225 -205 225 C-205 225.66 -205 226.32 -205 227 C-206.60032137 227.84069415 -208.20541171 228.67231505 -209.8125 229.5 C-210.70582031 229.9640625 -211.59914063 230.428125 -212.51953125 230.90625 C-215 232 -215 232 -218 232 C-218 232.66 -218 233.32 -218 234 C-219.93625098 234.98163422 -221.87404539 235.96022454 -223.8125 236.9375 C-224.89144531 237.48277344 -225.97039062 238.02804687 -227.08203125 238.58984375 C-230 240 -230 240 -233 241 C-233 276.64 -233 312.28 -233 349 C-208.97509766 348.96519531 -208.97509766 348.96519531 -184.46484375 348.9296875 C-174.33398373 348.91947163 -164.20312744 348.90976127 -154.07226562 348.90234375 C-148.75105782 348.89841647 -143.42985013 348.89438713 -138.10864258 348.89013672 C-137.10826819 348.88934547 -137.10826819 348.88934547 -136.08768421 348.88853824 C-125.32426598 348.87984232 -114.56086914 348.86407615 -103.79746359 348.84569441 C-92.74929962 348.82698388 -81.70114746 348.81603051 -70.65296847 348.81182301 C-64.4482247 348.80921445 -58.24352943 348.80307833 -52.03880119 348.78853989 C-46.19894128 348.77496721 -40.35914985 348.77077675 -34.51927567 348.77378464 C-32.37589839 348.77323434 -30.23251883 348.76925506 -28.0891552 348.76158905 C-25.16192739 348.75163283 -22.23495783 348.7540337 -19.307724 348.75949097 C-18.03678663 348.75075244 -18.03678663 348.75075244 -16.74017376 348.74183738 C-11.21868259 348.76964332 -5.33485246 348.82214479 -1.09516907 352.77674866 C0.25257781 355.51274636 0.43537711 357.52328426 0.52270508 360.57202148 C0.55990158 361.69697525 0.59709808 362.82192902 0.63542175 363.98097229 C0.65905289 365.20283737 0.68268402 366.42470245 0.70703125 367.68359375 C0.74077347 368.96415146 0.77451569 370.24470917 0.8092804 371.56407166 C1.14209777 385.3374197 1.00003111 399.11100914 0.75805664 412.88452148 C0.69593083 416.43340642 0.64973326 419.98232006 0.60722637 423.53148746 C0.57197076 426.30852947 0.52776169 429.08537394 0.48087502 431.86224174 C0.44992779 433.80318649 0.42722163 435.74425709 0.40470886 437.68531799 C0.37006279 439.43642128 0.37006279 439.43642128 0.3347168 441.22290039 C0.31837692 442.24573624 0.30203705 443.26857208 0.28520203 444.32240295 C-0.00858292 447.08058008 -0.4769462 448.69706169 -2 451 C-5.5716892 453.38112613 -8.08607004 453.27652885 -12.20605469 453.24291992 C-13.30175278 453.24576744 -13.30175278 453.24576744 -14.41958618 453.24867249 C-16.83712464 453.25238012 -19.25436317 453.24167206 -21.671875 453.23046875 C-23.35475631 453.22927628 -25.0376383 453.22882393 -26.72052002 453.2290802 C-30.2512223 453.22751508 -33.78182323 453.2192265 -37.3125 453.20581055 C-41.82603072 453.18887289 -46.3394495 453.1849948 -50.85300827 453.18575573 C-54.33096372 453.18548292 -57.80889498 453.17998308 -61.28684235 453.17275429 C-62.95012479 453.16958313 -64.61340996 453.16760386 -66.27669525 453.16686058 C-68.60996601 453.1646775 -70.94312148 453.15588976 -73.27636719 453.14526367 C-74.29753128 453.14594345 -74.29753128 453.14594345 -75.33932495 453.14663696 C-78.32033483 453.12691815 -81.15516656 452.97517023 -84.10115051 452.50375366 C-90.0878746 451.73023466 -96.07636422 451.82036838 -102.10522461 451.79467773 C-103.53481319 451.78508725 -104.964399 451.7750765 -106.39398193 451.76467896 C-110.25912885 451.73775057 -114.12428782 451.71667605 -117.98947597 451.69667697 C-122.03471852 451.67474257 -126.07992441 451.6473905 -130.12513733 451.62062073 C-137.77827464 451.57079429 -145.43143241 451.52581837 -153.08460957 451.48259836 C-161.80047066 451.43313987 -170.51629494 451.37825379 -179.23212039 451.32291877 C-197.15471273 451.20925308 -215.07733983 451.10238074 -233 451 C-233.04674075 465.12546511 -233.08186601 479.25091822 -233.10362434 493.37644482 C-233.11406663 499.93531665 -233.12823407 506.49413656 -233.15087891 513.05297852 C-233.17259123 519.38124922 -233.18456528 525.70946996 -233.18975449 532.03777504 C-233.19345312 534.45352274 -233.2006755 536.86926767 -233.21146011 539.28499413 C-233.22595344 542.66556102 -233.22797882 546.04592076 -233.22705078 549.42651367 C-233.23424133 550.42776779 -233.24143188 551.42902191 -233.24884033 552.46061707 C-233.30090719 558.98564946 -233.30090719 558.98564946 -231 565 C-228.4068646 566.88559789 -228.4068646 566.88559789 -225.375 568.3125 C-224.37210937 568.82425781 -223.36921875 569.33601562 -222.3359375 569.86328125 C-221.56507813 570.23839844 -220.79421875 570.61351562 -220 571 C-220 571.66 -220 572.32 -220 573 C-219.27039063 573.10957031 -218.54078125 573.21914063 -217.7890625 573.33203125 C-214.83235175 574.04015105 -212.92930254 575.0600932 -210.375 576.6875 C-201.41535384 582.35990397 -191.90789783 587.12465213 -182.5 592 C-175.69140697 595.52833971 -168.91847248 599.10823646 -162.19726562 602.80078125 C-160.81081122 603.55747725 -159.41275466 604.29362267 -158 605 C-158 605.66 -158 606.32 -158 607 C-157.28070313 607.103125 -156.56140625 607.20625 -155.8203125 607.3125 C-152.67423439 608.07941101 -150.61178335 609.2765446 -147.875 611 C-141.64461554 614.75530023 -135.19088841 617.84747182 -128.58740234 620.890625 C-124.58153027 622.74343389 -120.73507136 624.63174823 -117 627 C-113.36143909 629.19372695 -110.18005652 630.95498587 -106 632 C-106 605.27 -106 578.54 -106 551 C-104.35 551 -102.7 551 -101 551 C-101 551.66 -101 552.32 -101 553 C-99.72576172 553.16628906 -99.72576172 553.16628906 -98.42578125 553.3359375 C-94.75409115 554.04766762 -91.64390536 555.19975677 -88.1875 556.625 C-87.55166992 556.88498779 -86.91583984 557.14497559 -86.26074219 557.4128418 C-84.1711926 558.26896966 -82.08552705 559.13412337 -80 560 C-77.6752873 560.9591472 -75.35003973 561.9169873 -73.0246582 562.87451172 C-71.53155941 563.49021265 -70.03918308 564.10766907 -68.54760742 564.72705078 C-65.71689656 565.90006574 -62.90803876 567.03065375 -60 568 C-60 568.66 -60 569.32 -60 570 C-57.69 570.33 -55.38 570.66 -53 571 C-53 571.66 -53 572.32 -53 573 C-50.03 573.66 -47.06 574.32 -44 575 C-44 575.66 -44 576.32 -44 577 C-41.69 577.33 -39.38 577.66 -37 578 C-37 578.66 -37 579.32 -37 580 C-35.6696875 580.0928125 -35.6696875 580.0928125 -34.3125 580.1875 C-24.4583018 581.60093045 -14.9245229 586.79706837 -6 591 C-6 591.66 -6 592.32 -6 593 C-5.071875 593.0928125 -5.071875 593.0928125 -4.125 593.1875 C-2 594 -2 594 -0.87979794 596.23636818 C0.00971434 599.03051481 0.2335843 601.11234432 0.20176697 604.03060913 C0.19354967 605.49388358 0.19354967 605.49388358 0.18516636 606.98671913 C0.16106394 608.5602292 0.16106394 608.5602292 0.13647461 610.16552734 C0.12337328 611.82409287 0.12337328 611.82409287 0.11000729 613.51616478 C0.09081116 615.84811299 0.06732426 618.18002937 0.03980637 620.51189423 C0.00202537 623.82252302 -0.02203263 627.13287406 -0.0397644 630.44366455 C-0.07593369 637.07973952 -0.12843077 643.71562127 -0.18359375 650.3515625 C-0.19827037 652.14413042 -0.19827037 652.14413042 -0.21324348 653.97291183 C-0.26503209 660.28240787 -0.31812823 666.59189131 -0.37231445 672.90136719 C-0.42730063 679.33627691 -0.47753202 685.77121474 -0.52671719 692.20617104 C-0.56606308 697.23571169 -0.60904093 702.26521692 -0.65294075 707.2947197 C-0.67301406 709.66486897 -0.69177519 712.03502981 -0.70907402 714.40520096 C-0.80237497 727.01751213 -1.0540046 739.59580486 -1.65368557 752.19476128 C-1.98492211 759.23367534 -2.12172404 766.24964551 -2.0625 773.296875 C-2.05682007 774.93538422 -2.05682007 774.93538422 -2.05102539 776.60699463 C-2.03911836 779.98804342 -2.02045258 783.36899293 -2 786.75 C-1.97340065 791.28645542 -1.95350628 795.82287138 -1.9375 800.359375 C-1.92920166 801.38730164 -1.92090332 802.41522827 -1.91235352 803.4743042 C-1.90905029 804.42089905 -1.90574707 805.3674939 -1.90234375 806.34277344 C-1.89710693 807.17274841 -1.89187012 808.00272339 -1.88647461 808.85784912 C-2 811 -2 811 -3 814 C-6 815 -6 815 -9.44140625 813.55859375 C-10.82090929 812.86295698 -12.19433181 812.15517329 -13.5625 811.4375 C-14.2834082 811.06761963 -15.00431641 810.69773926 -15.74707031 810.31665039 C-21.30889818 807.43414772 -26.67327009 804.29461704 -32 801 C-44.20939451 793.78068106 -56.52325219 786.74668585 -69 780 C-70.79196187 779.02137368 -72.58362434 778.04219896 -74.375 777.0625 C-80.56961732 773.68280285 -86.78402955 770.34021942 -93 767 C-93 766.34 -93 765.68 -93 765 C-93.721875 764.896875 -94.44375 764.79375 -95.1875 764.6875 C-98.30460446 763.92554113 -100.26493288 762.67229818 -103 761 C-105.18312952 759.84586146 -107.37117844 758.70100785 -109.5625 757.5625 C-118.50315058 752.85719102 -127.10381591 747.60155275 -135.74121094 742.3671875 C-146.04666117 736.05194732 -146.04666117 736.05194732 -157 731 C-157 730.34 -157 729.68 -157 729 C-157.70487549 728.90033936 -158.40975098 728.80067871 -159.13598633 728.69799805 C-162.45751342 727.88849792 -164.87446326 726.55860719 -167.82421875 724.83203125 C-168.93603516 724.18556641 -170.04785156 723.53910156 -171.19335938 722.87304688 C-172.3581425 722.18631593 -173.52285572 721.49946639 -174.6875 720.8125 C-175.82123047 720.15185547 -176.95496094 719.49121094 -178.12304688 718.81054688 C-183.23280384 715.82715563 -188.32012483 712.81115596 -193.37890625 709.7421875 C-197.26151407 707.40537811 -201.18031531 705.30553052 -205.25 703.3125 C-206.38953125 702.75175781 -207.5290625 702.19101562 -208.703125 701.61328125 C-209.79109375 701.08089844 -210.8790625 700.54851563 -212 700 C-214.00091282 699.00182774 -216.00121285 698.00242204 -218 697 C-218 696.34 -218 695.68 -218 695 C-220.31 694.34 -222.62 693.68 -225 693 C-225 692.34 -225 691.68 -225 691 C-225.58233398 690.87633057 -226.16466797 690.75266113 -226.76464844 690.62524414 C-229.0244691 689.99315581 -230.7360496 689.16240029 -232.765625 687.99609375 C-233.48290771 687.58907227 -234.20019043 687.18205078 -234.93920898 686.76269531 C-235.70177002 686.32538086 -236.46433105 685.88806641 -237.25 685.4375 C-243.88456253 681.68709091 -250.57738101 678.14105854 -257.41503906 674.77709961 C-263.03114453 672.0082257 -268.53488857 669.05675724 -274 666 C-274 665.34 -274 664.68 -274 664 C-274.71929687 663.896875 -275.43859375 663.79375 -276.1796875 663.6875 C-279.30692035 662.92518285 -281.41647119 661.72285625 -284.125 660 C-286.80872417 658.30329901 -288.97770778 657.00743074 -292 656 C-292 655.34 -292 654.68 -292 654 C-292.95712891 653.89558594 -292.95712891 653.89558594 -293.93359375 653.7890625 C-298.33996687 652.65519324 -302.07316885 650.52839697 -306.0625 648.375 C-307.32960815 647.69993408 -307.32960815 647.69993408 -308.62231445 647.01123047 C-314.3166794 643.95937702 -319.91260988 640.775884 -325.46484375 637.47265625 C-328.90179324 635.476154 -332.41866196 633.72179714 -336 632 C-336 631.34 -336 630.68 -336 630 C-336.721875 629.731875 -337.44375 629.46375 -338.1875 629.1875 C-342.50562279 627.3642926 -345.36848463 625.94727306 -348 622 C-348.24723816 619.3585968 -348.24723816 619.3585968 -348.24291992 616.12231445 C-348.24599655 614.90183914 -348.24907318 613.68136383 -348.25224304 612.42390442 C-348.24530427 611.07036169 -348.23803469 609.71682062 -348.23046875 608.36328125 C-348.2292702 606.93230735 -348.2288252 605.50133265 -348.2290802 604.07035828 C-348.22750725 601.02773262 -348.21920346 597.98522317 -348.20581055 594.94262695 C-348.18961318 591.23401275 -348.18506633 587.52553388 -348.18562889 583.81688881 C-348.18495534 566.08879418 -347.94503891 548.37090621 -347.58735085 530.6466732 C-347.06649013 504.64991218 -346.8472576 478.65753728 -346.71875 452.65625 C-346.71157845 451.22680766 -346.71157845 451.22680766 -346.70426202 449.76848769 C-346.62017401 432.99044612 -346.54595893 416.21236228 -346.47393799 399.43426514 C-346.42684348 388.48929787 -346.37760862 377.54434812 -346.32245111 366.59941816 C-346.29913314 361.93480045 -346.27753011 357.27018976 -346.26036072 352.60554504 C-346.1373068 319.38059181 -346.1373068 319.38059181 -345.35804558 303.38630962 C-344.8624368 292.94637408 -344.83253873 282.50860732 -344.80076981 272.05855751 C-344.78871573 268.44688089 -344.7692181 264.83531036 -344.74765015 261.22367859 C-344.68680783 250.9768724 -344.63168745 240.73009165 -344.59863281 230.4831543 C-344.57772887 224.16600969 -344.5425042 217.84908408 -344.49787521 211.53206444 C-344.48373059 209.13867948 -344.47499626 206.74525609 -344.47182083 204.35183144 C-344.46692865 201.02639122 -344.44382815 197.70154139 -344.41650391 194.3762207 C-344.41951004 193.39397018 -344.42251617 192.41171967 -344.4256134 191.39970398 C-344.34569782 184.8715842 -343.21599267 181.54187394 -338.875 176.5625 C-329.86663159 168.53330207 -317.71585214 160.9215102 -306 158 C-306 157.34 -306 156.68 -306 156 C-304.02 155.67 -302.04 155.34 -300 155 C-300 154.34 -300 153.68 -300 153 C-299.319375 152.67128906 -298.63875 152.34257812 -297.9375 152.00390625 C-291.80230995 148.99342071 -285.81391677 145.81561877 -279.875 142.4375 C-274.75205462 139.52550366 -269.61958793 136.7042246 -264.31640625 134.12890625 C-262.62563988 133.30490713 -260.94749184 132.45487024 -259.27734375 131.58984375 C-258.38144531 131.12707031 -257.48554688 130.66429687 -256.5625 130.1875 C-255.75941406 129.76855469 -254.95632812 129.34960938 -254.12890625 128.91796875 C-252 128 -252 128 -249 128 C-249 127.34 -249 126.68 -249 126 C-248.19175781 125.60167969 -247.38351563 125.20335937 -246.55078125 124.79296875 C-245.48214844 124.26316406 -244.41351563 123.73335938 -243.3125 123.1875 C-242.25675781 122.66542969 -241.20101562 122.14335937 -240.11328125 121.60546875 C-237.0210217 120.06623177 -237.0210217 120.06623177 -234.29296875 118.30078125 C-232 117 -232 117 -229 117 C-229 116.34 -229 115.68 -229 115 C-228.319375 114.67128906 -227.63875 114.34257812 -226.9375 114.00390625 C-220.85664417 111.02008204 -214.93823007 107.86544164 -209.0625 104.5 C-190.6422604 94 -190.6422604 94 -185 94 C-185 93.34 -185 92.68 -185 92 C-183.39967863 91.15930585 -181.79458829 90.32768495 -180.1875 89.5 C-179.29417969 89.0359375 -178.40085937 88.571875 -177.48046875 88.09375 C-175 87 -175 87 -172 87 C-172 86.34 -172 85.68 -172 85 C-171.01902344 84.5153125 -170.03804687 84.030625 -169.02734375 83.53125 C-162.23269458 80.16069608 -155.47639386 76.74786411 -148.8125 73.125 C-142.84587749 69.89197722 -136.76565052 66.94967527 -130.625 64.0625 C-121.25745706 59.65494119 -112.09284602 54.94684648 -103 50 C-102.0203125 49.46761719 -101.040625 48.93523437 -100.03125 48.38671875 C-98.28185362 47.43226867 -96.53313741 46.47657071 -94.78515625 45.51953125 C-85.63491992 40.52732658 -76.43508332 35.68612743 -67.08056641 31.08837891 C-61.30147486 28.21793172 -55.69806896 25.0680184 -50.13891602 21.79321289 C-45.31786387 19 -45.31786387 19 -42 19 C-42 18.34 -42 17.68 -42 17 C-41.24976563 16.63648437 -40.49953125 16.27296875 -39.7265625 15.8984375 C-34.72925831 13.44384224 -29.83802601 10.96920638 -25.125 8 C-21.12790791 5.56164447 -17.01904989 3.4777974 -12.75 1.5625 C-11.04070312 0.79099609 -11.04070312 0.79099609 -9.296875 0.00390625 C-5.70028689 -1.09126335 -3.60396326 -0.92283302 0 0 Z " fill="#040404" transform="translate(495,102)"/>
<path d="M0 0 C2.5274164 1.1425307 4.66434803 2.47467626 7 4 C7 4.66 7 5.32 7 6 C7.85207031 6.08894531 8.70414063 6.17789062 9.58203125 6.26953125 C13.53235067 7.11377094 16.22593247 8.61529595 19.6875 10.6875 C20.92005106 11.41494744 22.15313073 12.1414999 23.38671875 12.8671875 C23.99435059 13.22780273 24.60198242 13.58841797 25.22802734 13.95996094 C31.34620519 17.55095537 37.62089205 20.89665019 44 24 C44 24.66 44 25.32 44 26 C44.74765625 26.12375 45.4953125 26.2475 46.265625 26.375 C48.85137363 26.96602826 50.49429189 27.65776046 52.75 29 C57.09306332 31.50533735 61.49786302 33.85981051 65.9375 36.1875 C75.04053779 40.97808754 84.0261487 45.97254413 93 51 C93 51.66 93 52.32 93 53 C94.03125 53.268125 95.0625 53.53625 96.125 53.8125 C99.6485042 54.80998897 102.76880827 56.2661898 106 58 C106 58.66 106 59.32 106 60 C106.68964844 60.08894531 107.37929688 60.17789063 108.08984375 60.26953125 C111.69950051 61.17557932 114.36822371 62.7796558 117.5625 64.6875 C122.09627444 67.35925268 126.6414088 69.87784432 131.375 72.1875 C135.42108829 74.1677284 139.20316892 76.31371525 142.9765625 78.765625 C146.83617967 81.1201405 150.92968795 83.03991121 155 85 C155 85.66 155 86.32 155 87 C155.58177002 87.12600586 156.16354004 87.25201172 156.76293945 87.38183594 C158.98869122 87.99687506 160.76229379 88.80161136 162.79296875 89.890625 C163.50646484 90.27089844 164.21996094 90.65117188 164.95507812 91.04296875 C165.69177734 91.44128906 166.42847656 91.83960937 167.1875 92.25 C167.90486328 92.63285156 168.62222656 93.01570313 169.36132812 93.41015625 C177.4342887 97.73211724 185.40716454 102.2260439 193.36303711 106.7590332 C202.13031465 111.74827524 210.86889474 116.69954398 220 121 C220 121.66 220 122.32 220 123 C221.08390015 123.16278442 221.08390015 123.16278442 222.18969727 123.32885742 C225.2208685 124.05274672 227.29981681 125.13496707 229.96484375 126.73828125 C230.9192334 127.30554932 231.87362305 127.87281738 232.85693359 128.45727539 C233.87352051 129.06949951 234.89010742 129.68172363 235.9375 130.3125 C244.17897191 135.19962111 252.45719779 139.98495998 260.875 144.5625 C261.74632568 145.03792236 262.61765137 145.51334473 263.51538086 146.00317383 C267.74715531 148.29584271 272.00377759 150.51535873 276.31640625 152.65234375 C279.65611051 154.30880309 282.89271578 156.03216218 286.0625 158 C298.789049 165.76201286 312.07809153 172.64661145 325.45727539 179.21020508 C329.73654885 181.32076689 333.87658442 183.5982167 338 186 C338 186.66 338 187.32 338 188 C338.804375 188.04125 339.60875 188.0825 340.4375 188.125 C343.84805799 188.96268091 345.32287938 189.75579934 348.109375 191.73046875 C352.83118131 194.95666077 357.72119812 197.59691728 362.8125 200.1875 C364.67662006 201.15072213 366.53988139 202.11560773 368.40234375 203.08203125 C369.33804199 203.56752441 370.27374023 204.05301758 371.23779297 204.55322266 C383.97872116 211.22661319 396.46248067 218.38383775 408.96044922 225.49755859 C413.91587656 228.30487054 418.87810937 231.00948068 424 233.5 C435.21332749 239.04127991 435.21332749 239.04127991 436.71166992 242.77197266 C438.1984768 249.54812087 438.2617928 256.14544888 438.1875 263.0625 C438.18685547 264.17560547 438.18621094 265.28871094 438.18554688 266.43554688 C438.15582709 272.20448665 437.95121254 277.91803846 437.50927734 283.66992188 C436.70195014 295.56200803 436.77035972 307.48583093 436.69667697 319.39984393 C436.67430286 322.87783652 436.64711503 326.3557923 436.62062073 329.83375549 C436.57652348 335.71328943 436.53579383 341.59283886 436.49731445 347.47241211 C436.45866093 353.37575721 436.41719727 359.27907197 436.37231445 365.18237305 C436.15678827 393.53444025 435.97158223 421.88407303 436.02833557 450.23713493 C436.06538506 469.17026144 435.94017133 488.08935671 435.59706116 507.01948738 C435.04645613 537.4073507 434.8639167 567.79157104 434.76591539 598.18412876 C434.75393036 601.87538614 434.74141792 605.56664136 434.72874069 609.25789642 C434.65054713 632.09410468 434.57967681 654.9303289 434.52319336 677.76660156 C434.49491146 689.17463209 434.45961164 700.58261881 434.41653961 711.99060333 C434.38993431 719.14147778 434.37193558 726.29230353 434.36050236 733.44321752 C434.35138725 737.85210874 434.33404182 742.26093872 434.31432343 746.66979408 C434.30685399 748.70839669 434.30276723 750.74701494 434.30232811 752.78563118 C434.30124471 755.56709848 434.2879925 758.34825508 434.27174377 761.12966919 C434.27436063 761.93262299 434.27697748 762.73557678 434.27967364 763.56286252 C434.23552753 768.4014133 433.69420211 772.44603172 432 777 C429.38671875 779.171875 429.38671875 779.171875 426 781 C425.3601416 781.34740234 424.7202832 781.69480469 424.06103516 782.05273438 C421.99444423 783.15399354 419.9088591 784.20665077 417.8125 785.25 C417.10158203 785.61351562 416.39066406 785.97703125 415.65820312 786.3515625 C410.36630639 789 410.36630639 789 407 789 C407 789.66 407 790.32 407 791 C405.96166016 791.51046875 405.96166016 791.51046875 404.90234375 792.03125 C400.22013193 794.35076468 395.55775656 796.68078881 390.96875 799.1796875 C390.29851807 799.54384766 389.62828613 799.90800781 388.93774414 800.28320312 C387.61887538 801.00308364 386.30286859 801.72823599 384.98999023 802.45898438 C380.32960412 805 380.32960412 805 377 805 C377 805.66 377 806.32 377 807 C376.09378906 807.44730469 375.18757812 807.89460937 374.25390625 808.35546875 C367.40730794 811.74815648 360.64450034 815.22299315 354 819 C352.60475346 819.77189495 351.20889833 820.54269066 349.8125 821.3125 C347.15906563 822.77899223 344.53150343 824.27551636 341.91796875 825.8125 C335.58438328 829.5185523 329.24141147 832.89391664 322.5625 835.9375 C315.47705273 839.1698388 308.88745102 842.93198962 302.26171875 847.01171875 C292.43811395 853 292.43811395 853 288 853 C288 853.66 288 854.32 288 855 C287.23091309 855.39940796 287.23091309 855.39940796 286.44628906 855.80688477 C274.50165651 861.98400384 274.50165651 861.98400384 262.8125 868.625 C258.55483129 871.16086045 254.20668786 873.40327587 249.75 875.5625 C242.62288488 879.02832378 235.8188302 882.96573384 229 887 C221.76597359 891.2784532 214.54059826 895.37008637 206.96728516 899.01245117 C200.1892227 902.3098155 193.69533472 906.09495535 187.17895508 909.87744141 C174.89880271 917 174.89880271 917 171 917 C171 917.66 171 918.32 171 919 C169.83210937 919.56654297 169.83210937 919.56654297 168.640625 920.14453125 C157.90493064 925.42580025 147.45936204 931.19488109 137 937 C131.53267827 940.02191479 126.05222571 943.01138789 120.5 945.875 C119.7059375 946.28492188 118.911875 946.69484375 118.09375 947.1171875 C116 948 116 948 113 948 C113 948.66 113 949.32 113 950 C111.96166016 950.51046875 111.96166016 950.51046875 110.90234375 951.03125 C98.27362569 957.28737383 85.95163678 963.96730901 73.77832031 971.06640625 C68.78457824 973.97688189 63.75844349 976.80437226 58.66796875 979.54296875 C55.41933028 981.31711538 52.20930825 983.15608932 49 985 C43.04280127 988.41632327 37.0528737 991.75607256 31 995 C30.24895996 995.40605469 29.49791992 995.81210937 28.72412109 996.23046875 C26.15297522 997.61871847 23.57698214 998.99761836 21 1000.375 C19.74280151 1001.0553833 19.74280151 1001.0553833 18.46020508 1001.74951172 C17.27334106 1002.38010498 17.27334106 1002.38010498 16.0625 1003.0234375 C15.35222656 1003.40419434 14.64195312 1003.78495117 13.91015625 1004.17724609 C12 1005 12 1005 9 1005 C9 1005.66 9 1006.32 9 1007 C6.35261084 1008.4606285 5.10551666 1009 2 1009 C2 1009.66 2 1010.32 2 1011 C-2.67769286 1013.95935671 -6.30946837 1016.09644969 -12 1016 C-15.55388681 1014.70598895 -18.73156547 1012.88934823 -22 1011 C-23.09183594 1010.39800781 -24.18367188 1009.79601562 -25.30859375 1009.17578125 C-31.56741155 1005.65934298 -31.56741155 1005.65934298 -34 1004 C-34 1003.34 -34 1002.68 -34 1002 C-34.69480469 1001.90203125 -35.38960938 1001.8040625 -36.10546875 1001.703125 C-43.96372814 999.79423608 -51.2448348 994.56322565 -58.015625 990.2265625 C-61.16129097 988.28219417 -64.42039672 986.55723761 -67.67578125 984.8046875 C-71.02872505 982.98440544 -74.35928619 981.12766189 -77.6887207 979.26489258 C-84.04305366 975.71161599 -90.39389955 972.21599086 -96.94140625 969.02734375 C-100.03981342 967.48107983 -103.01423881 965.752512 -106 964 C-106 963.34 -106 962.68 -106 962 C-106.7425 961.896875 -107.485 961.79375 -108.25 961.6875 C-111.20363226 960.94909194 -112.652899 959.8776808 -115 958 C-115.99 957.67 -116.98 957.34 -118 957 C-118 956.34 -118 955.68 -118 955 C-118.99966797 954.88205078 -118.99966797 954.88205078 -120.01953125 954.76171875 C-123.99114986 953.74669171 -127.1630606 951.86589076 -130.6875 949.8125 C-131.39865967 949.40539795 -132.10981934 948.9982959 -132.8425293 948.57885742 C-137.47577576 945.91677975 -142.061234 943.17920448 -146.62890625 940.40625 C-152.9334647 936.66713791 -159.40893595 933.20646359 -166 930 C-166 929.34 -166 928.68 -166 928 C-166.5259375 927.91105469 -167.051875 927.82210937 -167.59375 927.73046875 C-170.84747127 926.74273194 -173.59757031 925.04082825 -176.5 923.3125 C-180.95305078 920.70719536 -185.4138253 918.2469626 -190.0625 916 C-195.55013096 913.31456357 -200.67165296 910.18628142 -205.84375 906.94140625 C-209.56748549 904.65094023 -213.37596174 902.57159439 -217.23046875 900.51171875 C-221.30780317 898.28614975 -225.28775138 895.90059082 -229.2734375 893.515625 C-231.80191265 892.11011159 -234.29111107 891.00475153 -237 890 C-237 889.34 -237 888.68 -237 888 C-237.721875 887.896875 -238.44375 887.79375 -239.1875 887.6875 C-242.31300433 886.92348783 -244.26451758 885.69116719 -247 884 C-249.22682468 882.7248098 -251.4556393 881.45379308 -253.6875 880.1875 C-257.83301874 877.83272889 -261.94183333 875.44104561 -266 872.9375 C-270.4615112 870.23421981 -275.08279181 867.9066789 -279.7578125 865.60302734 C-290.08090693 860.51145772 -300.02663259 854.73650622 -310 849 C-310 848.34 -310 847.68 -310 847 C-310.67933594 846.91492188 -311.35867188 846.82984375 -312.05859375 846.7421875 C-315.7720285 845.80519865 -318.79096304 844.04743265 -322.0625 842.125 C-323.47852751 841.31008628 -324.89522778 840.49634077 -326.3125 839.68359375 C-327.0653125 839.25030762 -327.818125 838.81702148 -328.59375 838.37060547 C-332.88809021 835.92453953 -337.22706949 833.55972427 -341.5625 831.1875 C-347.07026466 828.17260007 -352.55861033 825.13336399 -358 822 C-358 821.34 -358 820.68 -358 820 C-358.721875 819.896875 -359.44375 819.79375 -360.1875 819.6875 C-363.29711812 818.92737113 -365.2679944 817.65885808 -368 816 C-370.07616427 814.96466411 -372.16029003 813.94521559 -374.25 812.9375 C-382.06888941 809.09824093 -389.50256916 804.66559003 -396.97753906 800.20361328 C-406.19298483 794.71928836 -415.57214879 789.6129789 -425.07983398 784.65820312 C-430.70366255 781.71617382 -436.20558272 778.63521955 -441.65234375 775.375 C-443.91161714 773.97850293 -443.91161714 773.97850293 -446.12890625 773.125 C-448.84530092 771.49176061 -449.63600598 769.86824183 -451 767 C-451.26344617 764.15230599 -451.35946372 761.53580344 -451.30834961 758.69335938 C-451.30532648 757.84096176 -451.30230335 756.98856415 -451.29918861 756.1103363 C-451.28527393 753.1878703 -451.2496746 750.26603668 -451.21484375 747.34375 C-451.20046358 745.17933035 -451.18757579 743.01490039 -451.17601013 740.85046387 C-451.14744915 735.95767161 -451.10979157 731.06504775 -451.06658936 726.17236328 C-450.9908741 717.48350105 -450.94980008 708.79456043 -450.91064453 700.10546875 C-450.8957682 696.87896138 -450.880682 693.65245502 -450.86549377 690.4259491 C-450.86162495 689.60325852 -450.85775613 688.78056794 -450.85377008 687.93294734 C-450.80728171 678.17702444 -450.7515814 668.42115522 -450.69555664 658.6652832 C-450.69023371 657.7356182 -450.68491078 656.80595319 -450.67942655 655.84811652 C-450.6518818 651.03787478 -450.62424513 646.22763358 -450.59654617 641.41739273 C-450.48903215 622.74051467 -450.38354011 604.06362619 -450.28125 585.38671875 C-450.27527274 584.29884182 -450.26929549 583.21096488 -450.2631371 582.09012198 C-450.07602196 547.96035014 -449.93362837 513.83056957 -449.82082182 479.70047367 C-449.79034022 470.48442363 -449.75841647 461.26837955 -449.72557068 452.05233765 C-449.72095485 450.7532036 -449.71633902 449.45406955 -449.71158332 448.1155678 C-449.69299297 442.88405861 -449.67439345 437.65254945 -449.65565574 432.42104077 C-449.60530788 418.33360293 -449.55826549 404.24617118 -449.52127075 390.15869141 C-449.27255813 296.64704103 -449.27255813 296.64704103 -448.43562126 265.80125999 C-448.37300623 263.42597769 -448.31923478 261.05044145 -448.27542305 258.67473793 C-448.21409387 255.56291906 -448.11569102 252.45482916 -448.00366211 249.34448242 C-447.99266165 248.47829222 -447.98166119 247.61210201 -447.97032738 246.71966362 C-447.67560053 240.5130799 -445.56989227 237.15917842 -441 233 C-438.5078125 231.14453125 -438.5078125 231.14453125 -436.125 229.8125 C-435.27035156 229.33167969 -434.41570312 228.85085937 -433.53515625 228.35546875 C-432.69855469 227.90816406 -431.86195313 227.46085938 -431 227 C-430.23558594 226.58363281 -429.47117187 226.16726562 -428.68359375 225.73828125 C-423.46644737 223 -423.46644737 223 -420 223 C-420 222.34 -420 221.68 -420 221 C-409.91987385 215.53057375 -399.73865312 210.4015661 -389.34936523 205.54394531 C-383.93023787 202.9877055 -378.7453081 200.27802478 -373.7421875 196.9609375 C-372 196 -372 196 -369 196 C-369 195.34 -369 194.68 -369 194 C-368.24976563 193.63648438 -367.49953125 193.27296875 -366.7265625 192.8984375 C-361.78698126 190.47219483 -356.92705944 188.03020416 -352.25 185.125 C-345.42205893 180.93163426 -338.18706173 177.52531654 -331 174 C-318.7672368 167.96305193 -306.93405472 161.47696398 -295.3046875 154.34765625 C-289.56933123 150.90175419 -283.7657231 147.90013831 -277.6875 145.125 C-270.56124091 141.87024893 -263.92918567 138.09499961 -257.265625 133.98828125 C-247.4302554 128 -247.4302554 128 -244 128 C-244 127.34 -244 126.68 -244 126 C-243.26136719 125.63648437 -242.52273438 125.27296875 -241.76171875 124.8984375 C-236.73359804 122.40673855 -231.73150304 119.88916782 -226.8125 117.1875 C-221.88461388 114.48185242 -216.95109847 111.78792895 -212 109.125 C-211.2572583 108.71918701 -210.5145166 108.31337402 -209.74926758 107.89526367 C-208.69775513 107.33222534 -208.69775513 107.33222534 -207.625 106.7578125 C-206.99851562 106.4189502 -206.37203125 106.08008789 -205.7265625 105.73095703 C-204 105 -204 105 -201 105 C-201 104.34 -201 103.68 -201 103 C-198.35261084 101.5393715 -197.10551666 101 -194 101 C-194 100.34 -194 99.68 -194 99 C-193.38898438 98.70609375 -192.77796875 98.4121875 -192.1484375 98.109375 C-183.99638713 94.11372214 -176.04263889 89.78955013 -168.09521484 85.40332031 C-162.87486872 82.53105541 -157.6137459 79.79106675 -152.27294922 77.15014648 C-149.14813675 75.56894438 -146.14636196 73.83401798 -143.125 72.0625 C-137.78891672 68.96601106 -132.37064877 66.1322815 -126.83203125 63.41015625 C-121.37725319 60.69405297 -116.06733531 57.71042484 -110.74609375 54.74316406 C-84.30151316 40 -84.30151316 40 -80 40 C-80 39.34 -80 38.68 -80 38 C-79.17592651 37.6146106 -79.17592651 37.6146106 -78.33520508 37.22143555 C-75.82633199 36.04621961 -73.3194091 34.86689925 -70.8125 33.6875 C-69.94818359 33.28337891 -69.08386719 32.87925781 -68.19335938 32.46289062 C-64.71952598 30.82579673 -61.35151111 29.21541201 -58.07421875 27.20703125 C-56 26 -56 26 -53 26 C-53 25.34 -53 24.68 -53 24 C-51.85724609 23.43732422 -51.85724609 23.43732422 -50.69140625 22.86328125 C-44.97011305 20.02763406 -39.33539531 17.13716147 -33.83984375 13.8828125 C-32 13 -32 13 -29 13 C-29 12.34 -29 11.68 -29 11 C-26.64776003 9.7254916 -24.29333069 8.45534102 -21.9375 7.1875 C-21.28072266 6.83107422 -20.62394531 6.47464844 -19.94726562 6.10742188 C-6.95401163 -0.86925145 -6.95401163 -0.86925145 0 0 Z M-12.4375 28 C-13.66247129 28.64508059 -14.88774399 29.28958906 -16.11328125 29.93359375 C-17.06388428 30.44188721 -17.06388428 30.44188721 -18.03369141 30.96044922 C-21.36667555 32.72253595 -24.74803005 34.38675297 -28.125 36.0625 C-29.46116381 36.73001594 -30.79710444 37.39797881 -32.1328125 38.06640625 C-37.421875 40.7109375 -42.7109375 43.35546875 -48 46 C-48 46.66 -48 47.32 -48 48 C-48.71800781 48.10828125 -49.43601562 48.2165625 -50.17578125 48.328125 C-53.24253684 49.05769894 -55.45709202 50.18515761 -58.1875 51.75 C-63.38081765 54.67124118 -68.65058006 57.3775078 -74 60 C-74 60.66 -74 61.32 -74 62 C-74.58700684 62.13051758 -75.17401367 62.26103516 -75.77880859 62.39550781 C-79.2814186 63.34873516 -82.40789991 65.10207067 -85.625 66.75 C-87.07806793 67.48709169 -88.5311927 68.22407132 -89.984375 68.9609375 C-90.68240234 69.31639648 -91.38042969 69.67185547 -92.09960938 70.03808594 C-94.34618502 71.17522726 -96.610362 72.27435426 -98.875 73.375 C-106.73149298 77.29659971 -114.33806264 81.71506471 -122 86 C-131.79117364 91.4674718 -141.80429648 96.45129922 -151.859375 101.41015625 C-157.01497882 103.96332948 -162.06626902 106.66588136 -167.10546875 109.44140625 C-172.00929069 112.08192576 -177.00332683 114.5409043 -182 117 C-182 117.66 -182 118.32 -182 119 C-183.10577393 119.18332886 -183.10577393 119.18332886 -184.23388672 119.37036133 C-186.90531062 119.97844626 -188.85591147 120.78533311 -191.2578125 122.07421875 C-192.04929687 122.49509766 -192.84078125 122.91597656 -193.65625 123.34960938 C-194.4709375 123.79111328 -195.285625 124.23261719 -196.125 124.6875 C-196.91648437 125.10966797 -197.70796875 125.53183594 -198.5234375 125.96679688 C-204.70382688 129.27131152 -210.84989763 132.63957267 -217 136 C-218.70434686 136.92983456 -220.40877265 137.85952446 -222.11328125 138.7890625 C-222.95785889 139.24982178 -223.80243652 139.71058105 -224.67260742 140.18530273 C-226.49671784 141.18010336 -228.32111791 142.17437301 -230.14575195 143.16821289 C-235.08029635 145.85689903 -240.00974289 148.55420976 -244.9296875 151.26953125 C-245.89479248 151.80046387 -246.85989746 152.33139648 -247.85424805 152.87841797 C-249.68041372 153.88332051 -251.50492838 154.8912321 -253.32739258 155.90283203 C-259.42090869 159.24981913 -265.63600619 162.20306615 -272 165 C-272 165.66 -272 166.32 -272 167 C-273.3303125 167.433125 -273.3303125 167.433125 -274.6875 167.875 C-277.50382424 168.83148748 -280.25083156 169.86798946 -283 171 C-283 171.66 -283 172.32 -283 173 C-283.845625 173.268125 -284.69125 173.53625 -285.5625 173.8125 C-289.13854067 175.0478595 -292.53860908 176.476988 -296 178 C-296 178.66 -296 179.32 -296 180 C-296.83273437 180.25265625 -297.66546875 180.5053125 -298.5234375 180.765625 C-302.40860537 182.14507786 -305.96274454 183.8721474 -309.625 185.75 C-311.05066437 186.47418848 -312.47644657 187.19814504 -313.90234375 187.921875 C-314.59956543 188.27701172 -315.29678711 188.63214844 -316.01513672 188.99804688 C-318.72325913 190.36509907 -321.45769011 191.67689641 -324.1875 193 C-328.36507056 195.08035143 -332.30297661 197.38571163 -336.25 199.875 C-341.07063785 202.90593997 -345.94801556 205.56278513 -351.0625 208.0625 C-356.77639565 210.85542092 -362.29142147 213.83465508 -367.7578125 217.09375 C-371.7185147 219.42245202 -375.72954321 221.65153987 -379.75 223.875 C-387.51335318 228.17216397 -395.25434434 232.50711289 -402.98388672 236.86474609 C-405.11432909 238.06437761 -407.246431 239.26101741 -409.37890625 240.45703125 C-410.09997559 240.86171631 -410.82104492 241.26640137 -411.56396484 241.68334961 C-412.93768677 242.4542322 -414.31169144 243.22461126 -415.68603516 243.99438477 C-421.68435291 247.01952625 -421.68435291 247.01952625 -427 251 C-427.09451412 252.92042151 -427.11741817 254.84437843 -427.11352539 256.76712036 C-427.11345206 258.02453631 -427.11337873 259.28195227 -427.11330318 260.57747173 C-427.10816348 261.98800878 -427.10294505 263.39854554 -427.09765625 264.80908203 C-427.09576051 266.2898723 -427.09432273 267.77066322 -427.09330845 269.25145435 C-427.09017619 272.46765067 -427.08391425 275.68382093 -427.07531929 278.90000725 C-427.061636 284.05919502 -427.05513594 289.21837648 -427.04978943 294.37757874 C-427.0415806 301.76209001 -427.03064814 309.14659242 -427.01803589 316.53109741 C-426.98557279 335.95691527 -426.97650643 355.38275154 -426.97265625 374.80859375 C-426.97243131 375.76993201 -426.97220637 376.73127028 -426.97197461 377.72174001 C-426.96568837 407.54623686 -427.06994917 437.36495367 -427.4375 467.1875 C-427.53233294 474.95568839 -427.62419862 482.72390421 -427.7109375 490.4921875 C-427.72266809 491.54255125 -427.73439869 492.592915 -427.74648476 493.67510796 C-428.20799422 536.0389441 -428.32851648 578.40667855 -428.52910233 620.77234268 C-428.55675285 626.61170487 -428.58476749 632.45106524 -428.61291289 638.29042506 C-428.67722386 651.63415779 -428.74017843 664.97789635 -428.80186796 678.32164145 C-428.81621761 681.41634899 -428.83072073 684.51105578 -428.84524918 687.60576248 C-428.8545409 689.59757734 -428.86381721 691.58939227 -428.87307739 693.58120728 C-428.87757046 694.54402359 -428.88206354 695.5068399 -428.88669276 696.49883246 C-428.90786113 701.11275623 -428.92733445 705.7266755 -428.94285583 710.34062195 C-428.94575929 711.20055276 -428.94866275 712.06048357 -428.9516542 712.94647288 C-428.95730543 714.62255799 -428.96289754 716.2986433 -428.96842599 717.97472882 C-428.98706794 723.05846387 -429.02796566 728.14145809 -429.08151245 733.22494507 C-429.09091575 734.43813006 -429.10031904 735.65131506 -429.11000729 736.90126324 C-429.12685441 739.05441989 -429.15109223 741.20754072 -429.18516636 743.36049366 C-429.21645643 748.63667303 -428.93403419 753.05892318 -427 758 C-423.29703083 761.03833368 -419.19177312 762.96358615 -414.875 765 C-407.55182224 768.53078164 -400.6591403 772.71945541 -393.75341797 777 C-392.93502441 777.50273438 -392.11663086 778.00546875 -391.2734375 778.5234375 C-390.54560059 778.97638184 -389.81776367 779.42932617 -389.06787109 779.89599609 C-387.0370766 780.98020539 -385.24896579 781.55198117 -383 782 C-383 782.66 -383 783.32 -383 784 C-382.23816406 784.37511719 -381.47632813 784.75023437 -380.69140625 785.13671875 C-374.97011305 787.97236594 -369.33539531 790.86283853 -363.83984375 794.1171875 C-361.88932227 795.2163033 -361.88932227 795.2163033 -359 795 C-359 795.66 -359 796.32 -359 797 C-358.24976563 797.36351562 -357.49953125 797.72703125 -356.7265625 798.1015625 C-350.61318748 801.10435375 -344.72210743 804.26274774 -338.9609375 807.8984375 C-337.08424192 809.16325547 -337.08424192 809.16325547 -335 809 C-335 809.66 -335 810.32 -335 811 C-334.17886719 811.40605469 -333.35773438 811.81210937 -332.51171875 812.23046875 C-328.58505327 814.20908884 -324.69676529 816.25227207 -320.8125 818.3125 C-320.06798584 818.70622803 -319.32347168 819.09995605 -318.55639648 819.50561523 C-313.33505733 822.27284036 -308.15262288 825.10333154 -303.00390625 828.00390625 C-301.07447948 829.14837257 -301.07447948 829.14837257 -299 829 C-299 829.66 -299 830.32 -299 831 C-298.23816406 831.36351562 -297.47632813 831.72703125 -296.69140625 832.1015625 C-291.77307414 834.49625603 -286.99575469 836.87035861 -282.5 840 C-273.85995303 846.22578519 -273.85995303 846.22578519 -264 849 C-264 849.66 -264 850.32 -264 851 C-262.39967863 851.84069415 -260.79458829 852.67231505 -259.1875 853.5 C-258.29417969 853.9640625 -257.40085937 854.428125 -256.48046875 854.90625 C-253.99431974 856.20173141 -253.99431974 856.20173141 -251 856 C-251 856.66 -251 857.32 -251 858 C-250.37738281 858.29390625 -249.75476563 858.5878125 -249.11328125 858.890625 C-235.7672154 865.36821344 -222.97263001 872.96064933 -210.28662109 880.63598633 C-201.09227489 886.88793433 -201.09227489 886.88793433 -191 890 C-191 890.66 -191 891.32 -191 892 C-190.40574219 892.29132812 -189.81148437 892.58265625 -189.19921875 892.8828125 C-178.94326381 897.9549644 -169.05270412 903.53932195 -159.2199707 909.37963867 C-154.53222677 912.14691126 -149.8051909 914.72994438 -144.8828125 917.0625 C-143 918 -143 918 -140 920 C-139.01 920 -138.02 920 -137 920 C-137 920.66 -137 921.32 -137 922 C-128.8230823 926.72805897 -128.8230823 926.72805897 -120 930 C-120 930.66 -120 931.32 -120 932 C-119.01902344 932.47308594 -118.03804688 932.94617188 -117.02734375 933.43359375 C-108.57825773 937.55628332 -100.46819203 942.00784749 -92.44921875 946.91015625 C-87.73052265 949.79056745 -82.8775352 952.40039847 -78 955 C-76.70923627 955.702392 -75.41890046 956.40557072 -74.12890625 957.109375 C-72.77357326 957.84400053 -71.41810528 958.57837705 -70.0625 959.3125 C-69.423125 959.66256104 -68.78375 960.01262207 -68.125 960.37329102 C-65.13285202 961.98331757 -62.3687652 963.41743158 -59 964 C-59 964.66 -59 965.32 -59 966 C-57.7625 966.60134766 -57.7625 966.60134766 -56.5 967.21484375 C-48.30831444 971.24668899 -40.32716435 975.55604967 -32.3984375 980.08203125 C-27.48073774 983.09383083 -27.48073774 983.09383083 -22 984 C-22 984.66 -22 985.32 -22 986 C-15.45007236 989.89433616 -15.45007236 989.89433616 -8.0625 990.875 C-6.02861151 990.293889 -4.00672697 989.66890899 -2 989 C-2 988.34 -2 987.68 -2 987 C-0.89881836 986.82343872 -0.89881836 986.82343872 0.22460938 986.64331055 C3.00364967 985.99915404 4.94202225 985.11807944 7.40625 983.70703125 C8.22706055 983.24401611 9.04787109 982.78100098 9.89355469 982.30395508 C10.75368164 981.8117749 11.61380859 981.31959473 12.5 980.8125 C20.19333247 976.48657929 27.89328433 972.5060066 36 969 C36 968.34 36 967.68 36 967 C36.63292969 966.76925781 37.26585937 966.53851562 37.91796875 966.30078125 C42.17929098 964.50227643 46.22494923 962.34738091 50.3125 960.1875 C51.12912109 959.76146484 51.94574219 959.33542969 52.78710938 958.89648438 C57.39815671 956.46787697 61.85936144 953.89963004 66.25512695 951.10083008 C68.43601596 949.72492011 70.66796139 948.47351166 72.9375 947.25 C74.33162109 946.49783203 74.33162109 946.49783203 75.75390625 945.73046875 C80.35138838 943.27958477 84.955077 940.84053703 89.56201172 938.4074707 C96.06092367 934.9742896 102.53505294 931.49669311 109 928 C109 927.34 109 926.68 109 926 C110.98 925.67 112.96 925.34 115 925 C115 924.34 115 923.68 115 923 C116.25683594 922.61714844 116.25683594 922.61714844 117.5390625 922.2265625 C121.33207838 920.88231082 124.80224791 919.20985807 128.375 917.375 C129.01566406 917.05015625 129.65632812 916.7253125 130.31640625 916.390625 C131.87947501 915.59742593 133.44000622 914.79922969 135 914 C135 913.34 135 912.68 135 912 C135.94875 911.79375 136.8975 911.5875 137.875 911.375 C142.25194159 910.1409333 145.81890634 907.83904265 149.65234375 905.4453125 C152.35425194 903.78190812 155.1632394 902.4183803 158 901 C159.23602664 900.24021525 160.46457395 899.46819623 161.6875 898.6875 C166.65671355 895.53720613 171.81466445 892.77552595 177 890 C178.14726563 889.37996094 179.29453125 888.75992188 180.4765625 888.12109375 C187.07503348 884.56617849 193.71490073 881.1270549 200.4375 877.8125 C205.15862728 875.48299273 209.71914078 873.06322334 214.1171875 870.1640625 C217.91629475 867.81523685 221.97924226 865.93622555 226 864 C226 863.34 226 862.68 226 862 C226.99 861.87625 226.99 861.87625 228 861.75 C231.99039163 860.75240209 235.38549643 858.92833317 239 857 C239 856.34 239 855.68 239 855 C239.72292236 854.8875293 240.44584473 854.77505859 241.19067383 854.65917969 C244.15121932 853.96451793 246.30134867 852.93541934 248.94921875 851.453125 C249.88056641 850.9375 250.81191406 850.421875 251.77148438 849.890625 C252.73376953 849.34921875 253.69605469 848.8078125 254.6875 848.25 C261.71562334 844.33000776 268.76765897 840.53182116 276 837 C276 836.34 276 835.68 276 835 C276.73557129 834.88084229 277.47114258 834.76168457 278.22900391 834.63891602 C280.97108168 834.00666777 282.89795629 833.15484427 285.3359375 831.77734375 C286.14490479 831.32552734 286.95387207 830.87371094 287.78735352 830.40820312 C289.06823853 829.68020508 289.06823853 829.68020508 290.375 828.9375 C292.18311096 827.92491867 293.99170841 826.91320558 295.80078125 825.90234375 C296.68846191 825.40460449 297.57614258 824.90686523 298.49072266 824.39404297 C301.82121464 822.54376964 305.18791724 820.76808336 308.5625 819 C315.40645539 815.39821864 322.08295036 811.51941563 328.74438477 807.59179688 C329.51451904 807.13998047 330.28465332 806.68816406 331.078125 806.22265625 C331.76293945 805.81797119 332.44775391 805.41328613 333.15332031 804.99633789 C335 804 335 804 338 803 C338 802.34 338 801.68 338 801 C338.82757812 800.75507812 339.65515625 800.51015625 340.5078125 800.2578125 C344.53522484 798.80722327 348.12625609 796.92232438 351.875 794.875 C357.58214136 791.80302165 363.31368348 788.80766657 369.125 785.9375 C375.22398934 782.92248216 381.2422787 779.77915859 387.21728516 776.52514648 C389.79552579 775.12939918 392.21074649 773.92975117 395 773 C395 772.34 395 771.68 395 771 C395.56589844 770.88398437 396.13179687 770.76796875 396.71484375 770.6484375 C399.24091673 769.9316373 401.27146668 768.90425718 403.5625 767.625 C404.32691406 767.20476563 405.09132813 766.78453125 405.87890625 766.3515625 C408.84011293 764.46467942 410.67779914 763.25992246 411.57085419 759.76775265 C412.02710441 756.82519155 412.13661027 754.04522396 412.15148926 751.06752014 C412.15983292 749.87656235 412.16817657 748.68560455 412.17677307 747.45855713 C412.18095749 746.15875916 412.18514191 744.85896118 412.18945312 743.51977539 C412.19740432 742.12883763 412.20579296 740.73790231 412.21458435 739.3469696 C412.23264444 736.34548221 412.24766377 733.34400026 412.26036072 730.34248543 C412.28079251 725.53431557 412.30844496 720.72620284 412.33703613 715.91807556 C412.39207542 706.49830761 412.43994128 697.0785098 412.48697662 687.65869904 C412.5462134 675.84989822 412.60864074 664.04111884 412.67754889 652.23237032 C412.70049619 648.26691608 412.72207 644.30146718 412.73963928 640.33598518 C412.82096219 622.01781716 413.04863289 603.70843619 413.42153013 585.39377391 C414.4566238 534.24410181 414.48413614 483.07998963 414.60025311 431.92150116 C414.60827473 428.45075953 414.61644453 424.98001829 414.62475586 421.50927734 C414.62681346 420.64719447 414.62887106 419.7851116 414.63099102 418.896905 C414.66575131 404.79097262 414.73880411 390.68547941 414.82566347 376.57978231 C414.91475019 361.98959525 414.96614962 347.39963977 414.98155528 332.80918646 C414.99213237 323.85793902 415.03151229 314.90780007 415.10851816 305.95687342 C415.15812401 299.85861036 415.17095436 293.76096821 415.15452697 287.66252804 C415.14612938 284.1488188 415.15399554 280.63712042 415.205513 277.12373543 C415.26088908 273.31815617 415.23890711 269.5152687 415.20927429 265.70935059 C415.23772059 264.60026856 415.26616688 263.49118653 415.29547518 262.34849596 C415.23321016 259.2539886 415.09185304 256.89881624 414 254 C410.96645904 251.24839725 407.73739687 249.61742839 404 248 C403.01386719 247.48050781 402.02773438 246.96101562 401.01171875 246.42578125 C399.86123047 245.87470703 399.86123047 245.87470703 398.6875 245.3125 C396.03268841 244.02051948 393.5314959 242.71694544 391 241.1875 C389.10104413 239.82982042 389.10104413 239.82982042 387 240 C387 239.34 387 238.68 387 238 C386.38253906 237.70867187 385.76507812 237.41734375 385.12890625 237.1171875 C379.76961624 234.52319325 374.85079506 231.70130717 370.0078125 228.234375 C367.98444163 226.99043493 366.32063906 226.43707103 364 226 C364 225.34 364 224.68 364 224 C362.89205078 223.56300781 362.89205078 223.56300781 361.76171875 223.1171875 C354.53335698 220.19645174 347.78454809 216.82435231 341 213 C338.65150148 211.69780915 336.2957537 210.40942061 333.9375 209.125 C332.85339844 208.52945313 331.76929688 207.93390625 330.65234375 207.3203125 C328.1953935 205.85145641 328.1953935 205.85145641 326 206 C326 205.34 326 204.68 326 204 C325.12601563 203.57332031 324.25203125 203.14664063 323.3515625 202.70703125 C320.27614862 201.14064912 317.33445344 199.46072624 314.375 197.6875 C307.71146582 193.76874665 300.85252173 190.33639935 293.890625 186.984375 C288.9131195 184.55732687 284.16821169 181.79577843 279.3984375 178.984375 C274.9811988 176.40511378 270.52309705 173.90245478 266.05786133 171.4074707 C262.86608482 169.62166324 259.68418369 167.82517828 256.53515625 165.96484375 C249.08863899 161.59425077 241.52545782 157.84458295 233.6940918 154.22143555 C228.9031066 151.9791473 224.4695082 149.61067593 220.18139648 146.48828125 C217.83129021 144.88489593 215.42816977 143.53728562 212.921875 142.19140625 C211.95056641 141.66732178 210.97925781 141.1432373 209.97851562 140.60327148 C208.99560547 140.07419189 208.01269531 139.5451123 207 139 C205.21277431 138.02484257 203.42629626 137.04831345 201.640625 136.0703125 C193.38155882 131.5565753 185.12315401 127.04323953 176.8125 122.625 C176.20647949 122.30257324 175.60045898 121.98014648 174.97607422 121.64794922 C174.39486816 121.33873535 173.81366211 121.02952148 173.21484375 120.7109375 C163.85004299 115.72699736 154.625093 110.52408014 145.43505859 105.22558594 C138.10462811 100.31426405 138.10462811 100.31426405 130 98 C130 97.34 130 96.68 130 96 C128.97261719 95.49210937 127.94523438 94.98421875 126.88671875 94.4609375 C115.11473311 88.62271713 103.62618649 82.46477345 92.36352539 75.68994141 C88.69171157 73.50089997 84.99455993 71.46968929 81.15625 69.5859375 C74.66277337 66.3913293 68.46917135 62.698497 62.24023438 59.02148438 C61.34755859 58.50263672 60.45488281 57.98378906 59.53515625 57.44921875 C58.33451538 56.74285278 58.33451538 56.74285278 57.10961914 56.0222168 C54.94074551 54.78197185 54.94074551 54.78197185 52 55 C52 54.34 52 53.68 52 53 C50.56705502 52.15885829 49.12845595 51.32734313 47.6875 50.5 C46.88699219 50.0359375 46.08648438 49.571875 45.26171875 49.09375 C42.9685882 47.78232114 42.9685882 47.78232114 40 48 C40 47.34 40 46.68 40 46 C37.35261084 44.5393715 36.10551666 44 33 44 C33 43.34 33 42.68 33 42 C32.28457031 41.6596875 31.56914063 41.319375 30.83203125 40.96875 C23.95930902 37.6257441 17.5303486 33.96056621 11.10546875 29.83203125 C2.58992095 24.80839362 -3.47474145 23.17969288 -12.4375 28 Z " fill="#020202" transform="translate(524,0)"/>
<path d="M0 0 C0 0.66 0 1.32 0 2 C-2.28874173 3.33858524 -4.58069656 4.67101014 -6.875 6 C-7.52597656 6.3815625 -8.17695313 6.763125 -8.84765625 7.15625 C-13.7734375 10 -13.7734375 10 -16 10 C-16 9.01 -16 8.02 -16 7 C-14.7315625 6.38125 -14.7315625 6.38125 -13.4375 5.75 C-10.98575106 4.5018369 -8.66625841 3.21974705 -6.3125 1.8125 C-3 0 -3 0 0 0 Z " fill="#09090A" transform="translate(384,72)"/>
<path d="M0 0 C3.14737182 0.69941596 6.02588876 1.76078698 9 3 C9 3.66 9 4.32 9 5 C10.1446875 5.185625 10.1446875 5.185625 11.3125 5.375 C14 6 14 6 17 8 C17 8.66 17 9.32 17 10 C10.83643195 8.3341708 5.51740344 5.12194714 0 2 C0 1.34 0 0.68 0 0 Z " fill="#0A0B0B" transform="translate(621,55)"/>
<path d="M0 0 C-13 9 -13 9 -18 9 C-18 8.34 -18 7.68 -18 7 C-16.35 6.67 -14.7 6.34 -13 6 C-13 5.34 -13 4.68 -13 4 C-11.40233897 3.13372601 -9.79660056 2.28233535 -8.1875 1.4375 C-7.29417969 0.96183594 -6.40085937 0.48617188 -5.48046875 -0.00390625 C-3 -1 -3 -1 0 0 Z " fill="#070809" transform="translate(508,7)"/>
<path d="M0 0 C5.6586936 0.43528412 10.4465155 2.68314602 15 6 C15.33 6.99 15.66 7.98 16 9 C10.0942118 7.44584521 5.02261107 4.40465533 0 1 C0 0.67 0 0.34 0 0 Z " fill="#080808" transform="translate(912,216)"/>
<path d="M0 0 C2.475 0.495 2.475 0.495 5 1 C5 1.66 5 2.32 5 3 C5.721875 3.103125 6.44375 3.20625 7.1875 3.3125 C10.27793421 4.06793947 12.41743841 5.15531315 15 7 C15 7.66 15 8.32 15 9 C9.52067211 7.45454854 4.88570819 4.84456788 0 2 C0 1.34 0 0.68 0 0 Z " fill="#0B0B0C" transform="translate(618,138)"/>
<path d="M0 0 C-4.625 3 -4.625 3 -8 3 C-8 3.66 -8 4.32 -8 5 C-9.98 5.66 -11.96 6.32 -14 7 C-14 6.01 -14 5.02 -14 4 C-12.42466914 3.13116294 -10.83935491 2.28040932 -9.25 1.4375 C-8.36828125 0.96183594 -7.4865625 0.48617187 -6.578125 -0.00390625 C-3.79298812 -1.07998186 -2.73019786 -1.06528748 0 0 Z " fill="#070708" transform="translate(438,45)"/>
<path d="M0 0 C0.99 0 1.98 0 3 0 C3 0.66 3 1.32 3 2 C3.86625 2.2475 4.7325 2.495 5.625 2.75 C9.18302254 4.06778613 11.9226155 5.80186822 15 8 C12 9 12 9 9.58984375 7.890625 C8.71457031 7.34921875 7.83929688 6.8078125 6.9375 6.25 C6.05964844 5.71890625 5.18179687 5.1878125 4.27734375 4.640625 C2 3 2 3 0 0 Z " fill="#0E0E0E" transform="translate(306,898)"/>
<path d="M0 0 C-3.93828536 2.31663844 -7.69235185 4.43358249 -12 6 C-10.91663521 2.50915788 -9.8952877 1.94478806 -6.5625 0.1875 C-3 -1 -3 -1 0 0 Z " fill="#0A0A0B" transform="translate(346,94)"/>
<path d="M0 0 C0 0.66 0 1.32 0 2 C-1.4562545 2.67119549 -2.91507867 3.33681807 -4.375 4 C-5.59316406 4.556875 -5.59316406 4.556875 -6.8359375 5.125 C-9 6 -9 6 -11 6 C-11 5.34 -11 4.68 -11 4 C-9.73308493 3.32591692 -8.46129251 2.66099503 -7.1875 2 C-6.47980469 1.62875 -5.77210938 1.2575 -5.04296875 0.875 C-3 0 -3 0 0 0 Z " fill="#101010" transform="translate(490,313)"/>
<path d="M0 0 C0.66 0.33 1.32 0.66 2 1 C0.06745228 3.0245738 -1.63158688 4.42105792 -4 6 C-6.1875 5.625 -6.1875 5.625 -8 5 C-6.71475739 4.13619741 -5.42157581 3.28419631 -4.125 2.4375 C-3.04605469 1.72400391 -3.04605469 1.72400391 -1.9453125 0.99609375 C-1.30335937 0.66738281 -0.66140625 0.33867187 0 0 Z " fill="#0C0C0C" transform="translate(120,235)"/>
<path d="M0 0 C0.556875 0.226875 1.11375 0.45375 1.6875 0.6875 C-1.16556797 3.01222205 -3.85324837 4.4383258 -7.3125 5.6875 C-7.3125 4.6975 -7.3125 3.7075 -7.3125 2.6875 C-3.28618421 -0.44407895 -3.28618421 -0.44407895 0 0 Z " fill="#080808" transform="translate(403.3125,61.3125)"/>
<path d="M0 0 C4.05281712 1.22527029 7.44360764 2.69880494 11 5 C8 6 8 6 6.2109375 5.29296875 C5.60507812 4.92816406 4.99921875 4.56335938 4.375 4.1875 C3.76398437 3.83042969 3.15296875 3.47335937 2.5234375 3.10546875 C1 2 1 2 0 0 Z " fill="#0A0A0C" transform="translate(677,293)"/>
<path d="M0 0 C-0.33 0.99 -0.66 1.98 -1 3 C-4.5625 4.1875 -4.5625 4.1875 -8 5 C-8 4.34 -8 3.68 -8 3 C-5.09451118 0.95830515 -3.59857954 0 0 0 Z " fill="#060808" transform="translate(731,897)"/>
<path d="M0 0 C4.40114397 0.50298788 6.71195019 2.08772731 10 5 C5.2482602 4.56802365 3.07999946 3.67230705 0 0 Z " fill="#0D0D0D" transform="translate(217,849)"/>
<path d="M0 0 C0.66 0.33 1.32 0.66 2 1 C-0.25 3.0625 -0.25 3.0625 -3 5 C-5.3125 4.75 -5.3125 4.75 -7 4 C-1.7265625 0.77734375 -1.7265625 0.77734375 0 0 Z " fill="#0A0A0A" transform="translate(840,836)"/>
<path d="M0 0 C5.75 1.625 5.75 1.625 8 5 C2.25 3.125 2.25 3.125 0 2 C0 1.34 0 0.68 0 0 Z " fill="#0B0B0B" transform="translate(368,725)"/>
</svg>
